<svg xmlns="http://www.w3.org/2000/svg" width="64" height="64" viewBox="0 0 32 32">
<path d="M19.62 11.558l-3.203 2.98-2.972-5.995 1.538-2.935c.322-.637 1.176-.637 1.498 0z" fill="#ffc24a"/>
<path d="M13.445 8.543l2.972 5.995-11.97 11.135z" fill="#ffa712"/>
<path d="M4.447 25.673l-.314-5.27c-.038-.64.519-1.235 1.159-1.235l9.252.017z" fill="#f4bd62"/>
<path d="M6.423 19.185l7.021 .017 2.972-5.644-2.972-5.995c-.322-.638-1.176-.638-1.498 0z" fill="#ffa712"/>
<path d="M16.417 14.538l-2.972 5.644-9.252-.017L6.925 4.15c.142-.322.519-.476.901-.381l8.591 10.769z" fill="#f66f01"/>
<path d="M27.685 18.977c.607-.322.607-1.235 0-1.557L16.417 14.538l-2.972 5.644 9.252 8.321c.644.579 1.509-.038 1.509-.853z" fill="#ff8f00"/>
<path d="M13.445 20.182l9.252 8.321c.644.579 1.509-.038 1.509-.853v-9.673z" fill="#ff6f00"/>
</svg>
