<svg xmlns="http://www.w3.org/2000/svg" width="64" height="64" viewBox="0 0 32 32">
<path d="M15.9.087l.854 1.604c.192.296.4.558.645.802a22.406 22.406 0 0 1 2.004 2.137c1.6 1.985 2.781 4.237 3.68 6.595a22.25 22.25 0 0 1 .408 15.565 22.132 22.132 0 0 1-1.463 3.405c-.565 1.007-1.268 1.958-2.118 2.796-.28.276-.569.552-.875.812L16.5 32l-2.635-1.196c-.306-.26-.595-.536-.875-.812-.85-.838-1.553-1.789-2.118-2.796a22.132 22.132 0 0 1-1.463-3.405 22.25 22.25 0 0 1 .408-15.565c.899-2.358 2.08-4.61 3.68-6.595a22.406 22.406 0 0 1 2.004-2.137c.245-.244.453-.506.645-.802L15.9.087z" fill="#599636"/>
<path d="M15.9.087l.854 1.604c.192.296.4.558.645.802.715.756 1.347 1.595 1.875 2.5a12.694 12.694 0 0 1 1.33 3.91c.096.19.16.382.217.575.18.6.316 1.22.405 1.848.18 1.266.117 2.563-.191 3.814a9.84 9.84 0 0 1-.675 2.28c-.394.92-.945 1.759-1.633 2.465-.688.706-1.513 1.27-2.437 1.667-.924.397-1.937.627-2.985.678-.37.018-.741.009-1.111-.027a10.215 10.215 0 0 1-2.985-.678 9.84 9.84 0 0 1-2.437-1.667c-.688-.706-1.239-1.545-1.633-2.465a9.84 9.84 0 0 1-.675-2.28c-.308-1.251-.371-2.548-.191-3.814.089-.628.225-1.248.405-1.848.057-.193.121-.385.217-.575a12.694 12.694 0 0 1 1.33-3.91c.528-.905 1.16-1.744 1.875-2.5.245-.244.453-.506.645-.802L15.9.087z" fill="#6cac48"/>
<path d="M16.754 28.845c.035-.4.072-.8.072-1.207 0-4.137-3.365-7.502-7.502-7.502-4.137 0-7.502 3.365-7.502 7.502 0 .407.037.807.072 1.207.018.195.037.39.072.578.035.188.072.375.126.555a7.481 7.481 0 0 0 .554 1.518c.16.301.337.594.537.871.2.277.419.543.654.798.235.255.488.498.759.729.271.231.559.452.867.662.308.21.634.407.975.592.341.185.698.357 1.07.516.372.159.759.304 1.161.435.402.131.818.248 1.248.351.43.103.875.191 1.332.264.457.073.928.131 1.409.174.481.043.975.072 1.477.086.502.014 1.016.014 1.537 0 .521-.014 1.056-.043 1.598-.086.542-.043 1.09-.101 1.646-.174.556-.073 1.121-.161 1.694-.264.573-.103 1.153-.22 1.742-.351.589-.131 1.184-.276 1.786-.435.602-.159 1.211-.331 1.825-.516.614-.185 1.232-.384 1.852-.592.62-.208 1.241-.427 1.861-.662.62-.235 1.237-.485 1.849-.729.612-.244 1.218-.502 1.814-.798.596-.296 1.179-.604 1.747-.871.568-.267 1.119-.543 1.651-.823.532-.28 1.045-.565 1.537-.854.492-.289.962-.581 1.409-.876.447-.295.871-.593 1.268-.895.397-.302.768-.607 1.111-.916.343-.309.659-.621.944-.936.285-.315.538-.633.759-.954.221-.321.411-.645.568-.971.157-.326.282-.655.375-.987.093-.332.155-.667.186-1.005.031-.338.031-.679 0-1.02-.031-.341-.093-.683-.186-1.026-.093-.343-.218-.687-.375-1.03-.157-.343-.347-.687-.568-1.03-.221-.343-.474-.686-.759-1.03-.285-.344-.601-.687-.944-1.03-.343-.343-.714-.686-1.111-1.03-.397-.344-.821-.687-1.268-1.03-.447-.343-.917-.686-1.409-1.03-.492-.344-1.005-.687-1.537-1.03-.532-.343-1.083-.686-1.651-1.03-.568-.344-1.151-.687-1.747-1.03-.596-.343-1.202-.686-1.814-1.03-.612-.344-1.237-.687-1.849-1.03-.612-.343-1.241-.686-1.861-1.03-.62-.344-1.232-.687-1.852-1.03-.62-.343-1.223-.686-1.825-1.03-.602-.344-1.184-.687-1.786-1.03-.602-.343-1.153-.686-1.742-1.03-.589-.344-1.131-.687-1.694-1.03-.563-.343-1.09-.686-1.646-1.03-.556-.344-1.056-.687-1.598-1.03-.542-.343-1.016-.686-1.537-1.03-.521-.344-.975-.687-1.477-1.03-.502-.343-.928-.686-1.409-1.03-.481-.344-.928-.687-1.332-1.03-.404-.343-.821-.686-1.248-1.03-.427-.344-.759-.687-1.161-1.03-.402-.343-.698-.686-1.07-1.03-.372-.344-.634-.687-.975-1.03-.341-.343-.559-.686-.867-1.03-.308-.344-.488-.687-.759-1.03-.271-.343-.419-.686-.654-1.03-.235-.344-.337-.687-.537-1.03-.2-.343-.16-.686-.554-1.03-.394-.344-.554-.687-.554-1.03-.035-.343-.054-.686-.072-1.03-.018-.344-.037-.687-.072-1.03 0-.343.037-.686.072-1.03.035-.344.072-.687.072-1.03 0-.343 0-.686 0-1.03 0-.343.035-.686.072-1.03.037-.344.072-.687.072-1.03 0-.343-.035-.686-.072-1.03-.037-.344-.072-.687-.072-1.03 0-.343.037-.686.072-1.03.035-.344.072-.687.072-1.03 0-.343 0-.686 0-1.03z" fill="#689f38"/>
<path fill="#6cac48" d="M15.9 28.845l.508-2.064V.087l-.854 1.604v27.154z"/>
</svg>
