<svg xmlns="http://www.w3.org/2000/svg" width="64" height="64" viewBox="0 0 32 32">
<path d="M16 30a2.151 2.151 0 0 1-1.076-.288L11.5 27.685c-.511-.288-.262-.389-.093-.449a6.828 6.828 0 0 0 1.549-.7.263.263 0 0 1 .255 0l2.183 1.285a.343.343 0 0 0 .318 0l8.5-4.907a.319.319 0 0 0 .157-.274V9.334a.331.331 0 0 0-.157-.288L15.711 4.14a.323.323 0 0 0-.318 0L7.394 9.047a.331.331 0 0 0-.157.288V22.64a.331.331 0 0 0 .157.288l2.332 1.351c1.268.636 2.042-.113 2.042-0.864V10.4a.3.3 0 0 1 .3-.3h1.311a.3.3 0 0 1 .3.3v13.013c0 2.262-1.234 3.562-3.384 3.562a4.633 4.633 0 0 1-2.5-.7L5.412 24.926A2.151 2.151 0 0 1 4.336 23.64V9.334A2.151 2.151 0 0 1 5.412 8.048L13.912 3.14a2.224 2.224 0 0 1 2.176 0l8.5 4.907A2.151 2.151 0 0 1 25.664 9.334V23.64a2.151 2.151 0 0 1-1.076 1.287l-8.5 4.907A2.151 2.151 0 0 1 16 30z" fill="#83cd29"/>
<path d="M18.987 20.396c-3.735 0-4.517-1.716-4.517-3.156a.3.3 0 0 1 .3-.3h1.334a.3.3 0 0 1 .3.262c.2 1.385.8 2.085 2.578 2.085 1.587 0 2.264-.359 2.264-1.2 0-.485-.193-.844-2.653-1.089-2.056-.2-3.331-.659-3.331-2.305 0-1.517 1.278-2.422 3.422-2.422 2.406 0 3.6.836 3.748 2.633a.31.31 0 0 1-.082.221.3.3 0 0 1-.218.093h-1.334a.3.3 0 0 1-.286-.217c-.318-1.411-1.089-1.862-2.827-1.862-2.084 0-2.326.726-2.326 1.269 0 .546.287.706 2.575.984 2.262.276 3.409.668 3.409 2.405-.001 1.668-1.391 2.583-3.8 2.583z" fill="#83cd29"/>
</svg>
